<svg id="Layer_1" version="1.1" viewBox="0 0 360 360" width="500" height="500">
  
  <defs>
    <style>
      .st0 {
        stroke-miterlimit: 10;
      }

      .st0, .st1 {
        stroke: #000;
      }

      .st1 {
        fill: none;
        stroke-miterlimit: 2.61;
        stroke-width: .22px;
      }
    </style>
  </defs>
  <g>
    <g>
      <polygon class="st0" points="174.37 156.01 169.03 153.27 169.03 155.62 174.37 158.37 174.37 156.01" />
      <rect class="st0" x="169.03" y="159.13" width="5.34" height="1.93" />
      <polygon class="st0" points="174.37 137.05 169.03 139.81 169.03 142.19 174.37 139.45 174.37 137.05" />
      <path class="st0" d="M203.13,146l-17.97-9.68h21.79c-.05-.65-.15-1.29-.29-1.93-5.86,0-14.52,0-23.46,0v3.78l18.18,9.38c.62-.49,1.21-1,1.75-1.55Z" />
      <path class="st0" d="M196.77,188.34l1.14,1.04,4.9-3.89c-.21-.74-.43-1.52-.67-2.31l-7.22,5.74,1.65-4.53,3.14-8.63c-.44-1.22-.91-2.43-1.41-3.6l-6.05,16.62-8.82-23.23-.23.1v6.47l7.51,19.78,6.06-3.55Z" />
      <polygon class="st0" points="174.37 135.14 171.64 136.32 174.37 136.32 174.37 135.14" />
      <path class="st0" d="M182.68,223.35l7.6-21.46-3.47,2.13-6.8,19.2-5.33-14.71h-.84l-.64-.48c-.63-.47-1.26-.92-1.9-1.35l6.05,16.7-27.68-22.6c-1.07.02-2.2.07-3.34.15l32.76,26.74c.23.19.57.3.91.3.35,0,.68-.11.91-.3l28.97-24.02c-.46-.57-.89-1.18-1.3-1.82l-25.89,21.51Z" />
      <polygon class="st0" points="139 171.09 149.99 179.87 149.99 177.02 141.75 170.44 139 171.09" />
      <path class="st0" d="M261.12,159.1c-5.82-3.06-25.66-13.46-25.66-13.46l-11.85-6.22c-.3.63-.64,1.24-1.01,1.84l10.71,5.62-1.49,11.62-18.87-8.06c-.69.46-1.39.9-2.11,1.33l17.22,7.36h-15.29c.48.6.91,1.25,1.29,1.93h15.86l-12.04,9.57.86,2.16,11.39-9.06-7.4,18.9c.42.98.92,2.1,1.46,3.25l9.72-24.82h23.89l-32.57,26.95c.35.69.72,1.37,1.08,2.01l35.07-29.01c.7-.57.56-1.46-.29-1.91ZM234.39,159.13l1.41-10.95,20.85,10.95h-22.26Z" />
      <path class="st0" d="M174.37,178.19v-7.06l-5.34,13.8v2.6c.55.05,1.1.12,1.65.19l3.69-9.53Z" />
      <path class="st0" d="M129.72,163.68l2.48,1.98c-.03-.49-.04-.98-.04-1.48s.02-.93.05-1.37l-2.2-1.76h2.41c.12-.68.28-1.32.48-1.93h-1.02l1.19-.51c.4-1.06.91-2.02,1.54-2.89l-6.48,2.77-1.49-11.62,19.28-10.12,4.07,5.22v-6.67c0-.32,0-.62-.02-.92h-3.49c-.37,0-.73.09-1.03.24l-46.57,24.45c-.48.25-.73.64-.74,1.04v.03c0,.3.15.59.44.84l35.91,30.2c.72-.38,1.46-.74,2.2-1.07l-34.58-29.06h23.9l10.83,28.99c.78-.34,1.57-.66,2.37-.95l-.07-.18-9.44-25.24ZM103.32,159.13l20.85-10.95,1.41,10.95h-22.26Z" />
    </g>
    <path d="M176.65,131.86l-9.9,4.28v53.31c3.45.09,6.75.74,9.9,1.93v-59.53ZM205.6,126.62c-2.34-3.41-4.47-5.11-6.4-5.11-.41,0-1.73.51-3.96,1.52l-14.32,6.91v29.97l15.08-6.77c8.84-3.96,13.26-9.3,13.26-16.02,0-3.22-1.22-6.72-3.66-10.5ZM155.47,229.24l8.84-1.24v3.87c-4.37.92-8.58,1.38-12.65,1.38-19.5,0-29.25-6.77-29.25-20.3,0-7.46,3.3-13.44,9.9-17.96,5.79-3.96,12.44-5.99,19.96-6.08v-26.52c-10.58-4.02-12.8,2.3-12.8,6.63h-4.57c-.3-1.75-.46-3.36-.46-4.83,0-8.56,5.94-12.89,17.83-12.98v-15.88c0-7.37-3.71-11.05-11.12-11.05-6.81,0-11.07,2.95-12.8,8.84l-4.11-.69c.61-5.94,2.92-10.89,6.93-14.87,4.01-3.98,8.91-5.99,14.7-5.99,6.5,0,11.68,1.61,15.54,4.86,3.56,3.06,5.33,6.91,5.33,11.56v4.03l9.9-4.44v-10.57c-1.02-.67-1.52-1.63-1.52-2.92,0-1.68,1.26-3.33,3.7-3.33s3.76,1.56,3.76,3.51c0,1.13-.55,2.23-1.67,2.88v8.38l29.1-13.95h1.83c7.62,5.06,11.43,11.44,11.43,19.08,0,5-1.75,9.3-5.26,12.94-3.5,3.64-9.02,7.23-16.53,10.73,5.48,1.93,9.09,4.65,10.82,8.17,2.34,6.08,4.72,12.11,7.16,18.12,3.66,9.14,6.75,14.34,9.29,15.63l5.79-3.31,3.05,2.9-17.67,10.64c-3.15-.37-5.64-1.43-7.47-3.18-2.44-2.49-4.47-6.91-6.09-13.26-4.27-16.85-8.89-27.07-13.87-30.66l-11.58,4.97v28.73c2.64,1.57,4.52,2.81,5.64,3.73l9.9-5.8,3.05,2.76-20.72,12.71h-4.11c-6.81-5.16-14.73-7.73-23.77-7.73-16.15,0-24.23,5.34-24.23,16.02,0,9.76,9.09,14.64,27.27,14.64.3,0,1.22-.05,1.52-.14Z" />
    <path class="st1" d="M176.65,131.86l-9.9,4.28v53.31c3.45.09,6.75.74,9.9,1.93v-59.53ZM205.6,126.62c-2.34-3.41-4.47-5.11-6.4-5.11-.41,0-1.73.51-3.96,1.52l-14.32,6.91v29.97l15.08-6.77c8.84-3.96,13.26-9.3,13.26-16.02,0-3.22-1.22-6.72-3.66-10.5ZM155.47,229.24l8.84-1.24v3.87c-4.37.92-8.58,1.38-12.65,1.38-19.5,0-29.25-6.77-29.25-20.3,0-7.46,3.3-13.44,9.9-17.96,5.79-3.96,12.44-5.99,19.96-6.08v-26.52c-11.74-4.02-12.8,2.3-12.8,6.63h-4.57c-.3-1.75-.46-3.36-.46-4.83,0-8.56,5.94-12.89,17.83-12.98v-15.88c0-7.37-3.71-11.05-11.12-11.05-6.81,0-11.07,2.95-12.8,8.84l-4.11-.69c.61-5.94,2.92-10.89,6.93-14.87,4.01-3.98,8.91-5.99,14.7-5.99,6.5,0,11.68,1.61,15.54,4.86,3.56,3.06,5.33,6.91,5.33,11.56v4.03l9.9-4.44v-10.57c-1.02-.67-1.52-1.63-1.52-2.92,0-1.68,1.26-3.33,3.7-3.33s3.76,1.56,3.76,3.51c0,1.13-.55,2.23-1.67,2.88v8.38l29.1-13.95h1.83c7.62,5.06,11.43,11.44,11.43,19.08,0,5-1.75,9.3-5.26,12.94-3.5,3.64-9.02,7.23-16.53,10.73,5.48,1.93,9.09,4.65,10.82,8.17,2.34,6.08,4.72,12.11,7.16,18.12,3.66,9.14,6.75,14.34,9.29,15.63l5.79-3.31,3.05,2.9-17.67,10.64c-3.15-.37-5.64-1.43-7.47-3.18-2.44-2.49-4.47-6.91-6.09-13.26-4.27-16.85-8.89-27.07-13.87-30.66l-11.58,4.97v28.73c2.64,1.57,4.52,2.81,5.64,3.73l9.9-5.8,3.05,2.76-20.72,12.71h-4.11c-6.81-5.16-14.73-7.73-23.77-7.73-16.15,0-24.23,5.34-24.23,16.02,0,9.76,9.09,14.64,27.27,14.64.3,0,1.22-.05,1.52-.14Z" />
  </g>
  <g>
    <path d="M156.65,266.58c-3.51-1.47-5.82-4.58-7.88-7.91-1.28-2.07-2.39-4.25-3.69-6.32-.89-1.43-1.98-2.73-2.94-4.12-.26-.37-.6-.96-.47-1.25.16-.34.8-.68,1.21-.65,1.23.08,2.5.17,3.66.54,7.83,2.54,13.95,7.55,19.27,13.64,1.51,1.72,2.8,3.63,4.28,5.37,1.25,1.48,2.65,2.82,3.94,4.27.97,1.08.87,1.74-.35,2.14-5.94,1.96-11.83,4.13-17.87,5.76-7.27,1.97-14.34.95-20.89-2.84-1.3-.75-2.42-1.89-3.47-2.98-.4-.41-.38-1.22-.55-1.84.62,0,1.25-.07,1.85,0,1.86.23,3.72.75,5.57.72,1.86-.03,3.75-.46,5.57-.94,4.31-1.13,8.58-2.4,12.75-3.58Z" />
    <path d="M203.24,266.62c5.03,1.37,10.12,2.85,15.27,4.13,2.88.72,5.81.72,8.67-.4.51-.2,1.2.05,1.8.1-.15.55-.17,1.17-.47,1.62-1.29,2.01-3.33,3.08-5.4,4.09-7.63,3.72-15.39,3.43-23.23.75-1.32-.45-2.59-1.02-3.91-1.46-2.87-.96-5.76-1.85-8.63-2.82-.71-.24-1.75-.59-1.91-1.11-.16-.51.51-1.39.98-1.97,2.23-2.74,4.5-5.44,6.78-8.13,5.4-6.36,11.6-11.65,19.62-14.42,1.33-.46,2.81-.64,4.23-.66,1.21-.02,1.48.73.88,1.64-1.8,2.73-3.63,5.46-5.33,8.26-2.2,3.63-4.34,7.3-8.09,9.61-.49.3-.99.59-1.28.76Z" />
    <path d="M233.16,253.78c2.22-.36,4.05-.73,5.9-.93,4.05-.45,8.15-.58,12.15-1.3,1.95-.35,3.72-1.73,5.58-2.63.51-.25,1.04-.44,1.57-.65.08.6.32,1.23.22,1.79-.44,2.39-2.11,4.02-3.72,5.64-5.73,5.79-12.87,8.08-20.83,8.17-4.58.05-9.16,0-13.73-.08-.71-.01-1.42-.46-2.13-.71.29-.65.55-1.32.88-1.96.8-1.58,1.9-3.06,2.41-4.72,2.31-7.43,5.29-14.5,10.54-20.39,1.25-1.41,2.63-2.73,4.11-3.89.99-.78,2.23-1.28,3.41-1.74.4-.16,1.06.08,1.47.33.15.09-.04.79-.14,1.2-.56,2.26-1.26,4.49-1.68,6.78-.98,5.33-1.58,10.79-6,15.08Z" />
    <path d="M126.49,253.61c-4.15-3.87-4.78-9.33-5.81-14.66-.47-2.43-1.15-4.82-1.8-7.2-.3-1.12.11-1.8,1.21-1.4,1.47.52,2.97,1.21,4.16,2.19,5.69,4.68,9.27,10.85,11.94,17.6.62,1.57,1.2,3.17,1.65,4.79.69,2.47,1.57,4.79,3.34,6.74,1.02,1.12.69,2.12-.62,2.04-7.83-.45-15.74,1.14-23.5-.98-5.98-1.63-10.82-4.97-14.53-9.9-.71-.95-.99-2.24-1.37-3.4-.1-.31.03-.88.26-1.06.2-.15.81-.05,1.05.16,4.16,3.59,9.24,3.78,14.35,4.05,3.25.18,6.48.67,9.65,1.02Z" />
    <path d="M101.6,230.69c-2.94-5.4-1.57-10.94-1.01-16.44.19-1.88.16-3.77.27-5.66.02-.42.07-1.09.3-1.19.38-.15,1.05-.09,1.35.16.86.73,1.73,1.52,2.36,2.45,3.99,5.87,5.87,12.47,6.51,19.47.2,2.23.3,4.47.3,6.71,0,2.01.16,3.94,1.02,5.82.69,1.49.05,2.34-1.41,1.77-6.66-2.6-13.98-3.27-20.26-6.99-5.5-3.25-9.31-7.86-11.37-13.9-.31-.91-.33-1.94-.33-2.92,0-.42.39-.84.6-1.26.44.26,1.06.41,1.3.8,1.41,2.22,3.3,3.9,5.67,4.93,2.82,1.23,5.77,2.16,8.62,3.34,2,.83,3.91,1.85,6.08,2.89Z" />
    <path d="M258.43,230.29c4.14-1.61,8.41-3.23,12.63-4.93,3.04-1.23,5.81-2.85,7.52-5.84.22-.39.86-.53,1.31-.79.22.42.66.84.63,1.24-.08,1.22-.14,2.5-.57,3.62-3.15,8.34-9.36,13.4-17.66,16.08-4.35,1.41-8.74,2.69-13.13,3.96-.65.19-1.41-.01-2.12-.04.1-.66.19-1.32.28-1.98.27-1.95.7-3.9.76-5.85.2-6.96.93-13.81,3.85-20.23.9-1.98,2.06-3.86,3.19-5.73.4-.67.97-1.29,1.59-1.76.52-.39,1.22-.53,1.84-.78.12.63.28,1.26.34,1.9.33,3.51.6,7.03.95,10.54.38,3.76.37,7.45-1.42,10.6Z" />
    <path d="M273.59,202.43c2.98-2.42,6.27-5.03,9.49-7.72,2.55-2.13,4.72-4.56,5.52-7.95.1-.41.58-.73.88-1.09.33.33.78.61.98,1,1.05,2.09.59,4.32.28,6.45-1.06,7.11-4.99,12.46-10.68,16.59-3.82,2.78-7.72,5.43-11.6,8.12-1.24.86-1.96.6-1.82-.74.33-3.11-.93-5.85-1.7-8.71-1.76-6.54-2.85-13.14-1.56-19.9.37-1.93,1.09-3.8,1.82-5.64.21-.53,1-.84,1.53-1.25.25.5.52.98.74,1.49.86,2.01,1.7,4.03,2.57,6.03.63,1.46,1.37,2.88,1.92,4.37.56,1.54,1.08,3.11,1.36,4.72.27,1.53.23,3.11.3,4.21Z" />
    <path d="M86.61,203.39c-.87-4.89.86-8.85,2.58-12.84,1.18-2.73,2.25-5.51,3.35-8.28.43-1.1,1.17-.76,1.55-.18.7,1.05,1.38,2.21,1.72,3.41,2.22,7.89,1.25,15.68-.99,23.39-.79,2.71-1.96,5.31-1.46,8.27.19,1.11-.5,1.42-1.5.94-.18-.09-.35-.19-.52-.3-4.45-3.17-9.06-6.15-13.32-9.56-6.16-4.92-9.1-11.55-9.13-19.43,0-.8.28-1.66.64-2.4.48-1,1.2-.96,1.71.05.28.57.38,1.23.6,1.84.86,2.42,2.49,4.28,4.43,5.89,2.6,2.16,5.25,4.27,7.82,6.46.82.7,1.48,1.6,2.53,2.75Z" />
    <path d="M81.93,187.5c-.44-.41-.82-.66-1.05-1.01-2.94-4.55-6.06-9-8.72-13.71-3.2-5.67-3.77-11.78-1.71-18.01.37-1.11,1.05-2.12,1.69-3.11.2-.31.74-.39,1.12-.57.18.38.56.79.51,1.15-.57,4.65,1.67,8.36,3.9,12.11,1.37,2.3,2.57,4.69,3.8,6.96,1.57-5.29,5.84-8.83,9.72-12.69,1.08-1.08,2-2.32,3.07-3.57,1.16.78,1.26,2.05,1.13,3.16-.3,2.61-.61,5.25-1.31,7.76-1.5,5.4-4.51,10.03-7.77,14.54-1.3,1.79-2.32,3.79-3.47,5.68-.25.41-.54.79-.91,1.32Z" />
    <path d="M265.43,155.2c2.55,2.6,5.07,5.06,7.47,7.63,2.35,2.51,4.62,5.1,5.5,8.72,2.41-4.72,4.87-9.28,7.04-13.97.63-1.36.39-3.12.62-4.68.09-.63.39-1.23.59-1.85.51.34,1.27.56,1.49,1.03.72,1.56,1.43,3.16,1.82,4.82,1.58,6.82-.2,13.03-3.82,18.79-2.28,3.62-4.72,7.14-7.12,10.68-.82,1.2-1.57,1.23-1.87.03-.78-3.22-3.21-5.34-4.97-7.9-4.08-5.9-7.2-12.16-7.74-19.46-.16-2.13.07-2.99.98-3.86Z" />
    <path d="M274.09,141.95c.73-2.97,1.44-6.07,2.25-9.13.9-3.41,1.68-6.78.17-10.23-.14-.32,0-.89.22-1.2.1-.14.81-.06,1.06.14.72.59,1.48,1.2,2,1.95,4.4,6.45,4.85,13.42,2.54,20.69-1.19,3.74-2.5,7.44-3.81,11.15-.18.51-.65.93-.99,1.39-.43-.38-.89-.73-1.3-1.14-1.26-1.25-2.4-2.64-3.77-3.75-4.83-3.91-9.44-8.01-12.39-13.59-.94-1.78-1.49-3.77-2.13-5.69-.16-.48-.05-1.09.03-1.62.13-.8.5-.95,1.24-.46,2.45,1.6,4.92,3.17,7.42,4.69,3.25,1.98,5.87,4.34,7.47,6.8Z" />
    <path d="M97.74,116.05c2.88-3.01,6.92-3.97,10.91-5.04,2.48-.66,4.96-1.34,7.56-2.04.65.93.08,1.88-.42,2.75-1.92,3.35-4.54,6.13-7.79,8.11-3.51,2.14-7.27,3.85-10.91,5.79-1.78.95-3.51,1.98-5.28,2.95-.41.23-.96.57-1.31.45-.3-.1-.56-.77-.59-1.19-.24-4.52-.57-9.04-.59-13.57-.03-6.82,2.48-12.64,7.58-17.23.89-.8,2.11-1.24,3.21-1.77.23-.11.77.03.91.23.14.21.09.73-.09.95-2.88,3.43-2.71,7.54-2.75,11.64-.03,2.67-.3,5.34-.46,7.97Z" />
    <path d="M261.97,115.92c-.08-3.08-.21-6.25-.23-9.42-.02-3.49-.41-6.85-2.63-9.75-.24-.31-.2-.82-.3-1.23.46-.07,1.01-.33,1.36-.16.97.46,1.98.96,2.76,1.67,5.16,4.69,7.65,10.6,7.56,17.54-.06,4.42-.36,8.85-.59,13.27-.07,1.32-.75,1.76-1.54.95-2.78-2.88-6.71-3.36-10.05-5.05-5.27-2.66-10.08-5.84-13.51-10.76-.64-.91-1.07-2.02-1.38-3.1-.23-.79.16-1.14,1.12-.84,2.4.78,4.88,1.33,7.26,2.16,2.89,1.02,5.73,2.19,8.55,3.4.69.3,1.21.99,1.61,1.33Z" />
    <path d="M85.86,141.97c1.51-2.92,4.27-4.68,6.95-6.45,2.81-1.85,5.76-3.49,8.99-5.44.05.94.3,1.88.12,2.74-.85,3.88-2.77,7.29-5.37,10.2-2.61,2.92-5.61,5.48-8.43,8.22-1.59,1.54-3.2,3.08-4.71,4.69-.93.99-1.48,1.09-1.83-.02-1.73-5.44-3.72-10.82-4.98-16.37-1.36-6.01.28-11.64,3.86-16.67.12-.16.21-.39.37-.46.76-.38,1.54-.72,2.31-1.07-.02.78.12,1.61-.1,2.33-.77,2.53-.59,5.03.02,7.52.88,3.61,1.87,7.19,2.81,10.77Z" />
    <path d="M243.98,94.87c-.89-2.19-1.95-4.7-2.92-7.25-1.07-2.8-2.49-5.31-5.11-6.97-.39-.24-.65-.68-1.03-1.09,1.26-1.08,2.51-.65,3.64-.28,4.38,1.42,7.87,4.08,10.17,8.08,1.16,2.01,2.08,4.18,2.89,6.37,1.03,2.8,1.87,5.67,2.73,8.52.14.47.02,1.01.03,1.53-.47-.03-.95-.02-1.42-.08-1.46-.2-2.92-.6-4.39-.62-6.14-.05-12.14-.73-17.62-3.78-1.2-.67-2.29-1.58-3.35-2.47-.4-.34-.56-.96-.92-1.61,2.03-.14,3.8-.24,5.55-.39,1.98-.18,3.96-.58,5.94-.56,2.04.02,4.07.42,5.79.62Z" />
    <path d="M115.83,95.62c2.88-1.66,5.86-1.32,8.83-1.03,2.81.28,5.62.59,8.63.91-.06,1.32-1.14,2.02-2.1,2.69-2.81,1.95-5.89,3.39-9.26,3.93-3.18.51-6.42.67-9.62,1.03-1.71.19-3.42.42-5.11.75-1.29.25-1.82-.02-1.4-1.14,1.9-5.16,2.75-10.73,5.85-15.44,2.49-3.78,5.77-6.55,10.15-7.88.65-.2,1.36-.3,2.05-.29.44,0,.88.28,1.31.44-.28.42-.47,1.02-.87,1.25-2.5,1.42-3.74,3.78-4.8,6.28-.42,1-.68,2.08-1.12,3.08-.78,1.77-1.63,3.5-2.54,5.42Z" />
    <path d="M208.78,84.9c4.92-.73,9.29-4.03,14.81-3.03-2.36-3.19-4.49-6.32-6.91-9.21-.96-1.14-2.56-1.74-3.87-2.58,0-.15-.01-.3-.02-.45.96-.14,1.94-.46,2.88-.38,4.77.43,8.74,2.58,11.5,6.41,2.48,3.46,4.47,7.27,6.66,10.93.09.16.09.37.16.64-.12.09-.23.24-.36.25-4.04.46-8.07,1-12.11,1.32-3.56.28-7.07-.2-10.36-1.65-.97-.43-1.8-1.15-2.69-1.74.11-.17.21-.34.32-.51Z" />
    <path d="M136.48,81.89c5.36-.77,9.83,2.35,14.82,3.23.05.14.1.27.15.41-.7.49-1.34,1.08-2.1,1.44-4.98,2.36-10.21,2.23-15.51,1.46-2.44-.35-4.9-.54-7.34-.81-.13-.01-.26-.13-.55-.27.16-.44.27-.91.5-1.32,1.55-2.72,3.05-5.47,4.7-8.13,2.77-4.46,6.59-7.56,11.89-8.49,1.05-.18,2.17-.07,3.25.01.29.02.55.45.82.69-.23.24-.41.6-.68.69-2.74.9-4.35,3.03-5.87,5.29-1.3,1.93-2.68,3.8-4.09,5.79Z" />
    <path d="M179.92,290.76c-1.91-3.14-3.78-6.01-5.43-9.01-1.27-2.31-.95-4.65.82-6.64,1.71-1.92,3.89-2.57,6.36-1.82,2.53.77,4.11,2.55,4.27,5.17.08,1.3-.32,2.79-.95,3.95-1.51,2.79-3.28,5.43-5.07,8.35Z" />
    <path d="M179.96,250.84c1.93,3.17,3.88,6.07,5.49,9.14,1.41,2.7.35,5.79-2.18,7.45-2.48,1.64-5.71,1.29-7.79-.86-1.9-1.97-2.32-4.63-.87-7.16,1.63-2.84,3.45-5.56,5.34-8.58Z" />
    <path d="M147.72,76.96c2.67-5.99,13.85-9.18,19.62-5.67-.85,5.02-14.25,10-19.62,5.67Z" />
    <path d="M192.41,71.43c5.12-3.85,17.12-.46,19.67,5.49-4.51,4.11-17.61.19-19.67-5.49Z" />
  </g>
</svg>